<?xml version="1.0" encoding="UTF-8" standalone="no"?>
<!-- Created with Inkscape (http://www.inkscape.org/) -->

<svg
   width="480mm"
   height="300mm"
   viewBox="0 0 480 300"
   version="1.1"
   id="svg1"
   sodipodi:docname="sheet_8_5mm.svg"
   inkscape:version="1.4.2 (ebf0e940d0, 2025-05-08)"
   xmlns:inkscape="http://www.inkscape.org/namespaces/inkscape"
   xmlns:sodipodi="http://sodipodi.sourceforge.net/DTD/sodipodi-0.dtd"
   xmlns="http://www.w3.org/2000/svg"
   xmlns:svg="http://www.w3.org/2000/svg">
  <sodipodi:namedview
     id="namedview1"
     pagecolor="#ffffff"
     bordercolor="#666666"
     borderopacity="1.0"
     inkscape:showpageshadow="2"
     inkscape:pageopacity="0.0"
     inkscape:pagecheckerboard="0"
     inkscape:deskcolor="#d1d1d1"
     inkscape:document-units="mm"
     inkscape:zoom="0.14233013"
     inkscape:cx="-172.13502"
     inkscape:cy="481.27546"
     inkscape:window-width="1920"
     inkscape:window-height="1095"
     inkscape:window-x="0"
     inkscape:window-y="0"
     inkscape:window-maximized="1"
     inkscape:current-layer="Shape2DView" />
  <defs
     id="defs1" />
  <g
     inkscape:label="Vrstva 1"
     inkscape:groupmode="layer"
     id="layer1">
    <g
       id="Shape2DView"
       transform="matrix(1,0,0,-1,5.34282,225.81988)"
       style="stroke:#000000;stroke-width:0.5;stroke-dasharray:none;stroke-opacity:1">
      <path
         id="path257"
         style="fill:none;fill-opacity:1;fill-rule:evenodd;stroke:#000000;stroke-width:0.5;stroke-linecap:square;stroke-miterlimit:4;stroke-dasharray:none;stroke-opacity:1"
         d="m 458.91665,220 h -42.8333 m 0,0 v -4.59765 m 0,0 c 0.31449,-0.18187 0.18594,-0.66269 -0.17735,-0.66335 m -4.3e-4,-1.3e-4 c -0.12698,2e-4 -0.24421,0.0681 -0.30757,0.17813 m -18.69565,-3.5e-4 h 18.6953 m -18.6953,0 c -0.0636,-0.11009 -0.1812,-0.17783 -0.30835,-0.17765 m 4.3e-4,-1.3e-4 c -0.3629,9.7e-4 -0.49136,0.48107 -0.17743,0.66313 m -3.5e-4,4.598 v -4.59765 m 0,4.59765 h -42.8333 m 0,0 v -4.59765 m 0,0 c 0.31449,-0.18187 0.18594,-0.66269 -0.17735,-0.66335 m -4.3e-4,-1.3e-4 c -0.12698,2e-4 -0.24421,0.0681 -0.30757,0.17813 m -18.69565,-3.5e-4 h 18.6953 m -18.6953,0 c -0.0636,-0.11009 -0.1812,-0.17783 -0.30835,-0.17765 m 4.3e-4,-1.3e-4 c -0.3629,9.7e-4 -0.49136,0.48107 -0.17743,0.66313 m -3.5e-4,4.598 v -4.59765 m 0,4.59765 h -42.8333 m 0,0 v -4.59765 m 0,0 c 0.31449,-0.18187 0.18594,-0.66269 -0.17735,-0.66335 m -4.3e-4,-1.3e-4 c -0.12698,2e-4 -0.24421,0.0681 -0.30757,0.17813 m -18.69565,-3.5e-4 h 18.6953 m -18.6953,0 c -0.0636,-0.11009 -0.1812,-0.17783 -0.30835,-0.17765 m 4.3e-4,-1.3e-4 c -0.3629,9.7e-4 -0.49136,0.48107 -0.17743,0.66313 m -3.5e-4,4.598 v -4.59765 m 0,4.59765 h -42.8333 m 0,0 v -4.59765 m 0,0 c 0.31449,-0.18187 0.18594,-0.66269 -0.17735,-0.66335 m -4.3e-4,-1.3e-4 c -0.12698,2e-4 -0.24421,0.0681 -0.30757,0.17813 m -18.69565,-3.5e-4 h 18.6953 m -18.6953,0 c -0.0636,-0.11009 -0.1812,-0.17783 -0.30835,-0.17765 m 4.3e-4,-1.3e-4 c -0.3629,9.7e-4 -0.49136,0.48107 -0.17743,0.66313 m -3.5e-4,4.598 v -4.59765 m 0,4.59765 h -42.8333 m 0,0 v -4.59765 m 0,0 c 0.31449,-0.18187 0.18594,-0.66269 -0.17735,-0.66335 m -4.3e-4,-1.3e-4 c -0.12698,2e-4 -0.24421,0.0681 -0.30757,0.17813 m -18.69565,-3.5e-4 h 18.6953 m -18.6953,0 c -0.0636,-0.11009 -0.1812,-0.17783 -0.30835,-0.17765 m 4.3e-4,-1.3e-4 c -0.3629,9.7e-4 -0.49136,0.48107 -0.17743,0.66313 m -3.5e-4,4.598 v -4.59765 m 0,4.59765 h -42.8333 m 0,0 v -4.59765 m 0,0 c 0.31449,-0.18187 0.18594,-0.66269 -0.17735,-0.66335 m -4.3e-4,-1.3e-4 c -0.12698,2e-4 -0.24421,0.0681 -0.30757,0.17813 m -18.695651,-3.5e-4 h 18.695301 m -18.695301,0 c -0.06355,-0.10997 -0.180937,-0.17769 -0.307949,-0.17765 m 2.8e-5,-1.3e-4 c -0.363058,6.7e-4 -0.491791,0.48099 -0.177728,0.66313 m -5e-5,4.598 v -4.59765 m 0,4.59765 h -42.8333 m 0,0 v -4.59765 m 0,0 c 0.314672,-0.18198 0.185753,-0.66309 -0.17775,-0.66335 m -2.8e-5,-1.3e-4 c -0.127083,9e-5 -0.244456,0.068 -0.307872,0.17813 m -18.695351,-3.5e-4 h 18.695302 m -18.695302,0 c -0.06355,-0.10997 -0.180937,-0.17769 -0.307949,-0.17765 m 2.8e-5,-1.3e-4 c -0.363058,6.7e-4 -0.491791,0.48099 -0.177728,0.66313 m -5e-5,4.598 v -4.59765 m 0,4.59765 H 0 m 0,0 v -21.41665 m 4.5976506,0 H 0 m 4.5976506,0 C 4.8143659,198.96019 5.460036,198.31499 5.08335,198.098 m 0,-3.5e-4 v -18.6953 m 0,0 c 0.3766849,-0.21699 -0.2689843,-0.86219 -0.4857,-0.48535 m 6e-7,-3.5e-4 H 0 m 0,0 v -32.8333 m 4.5976506,0 H 0 m 4.5976506,0 C 4.8143659,146.46019 5.460036,145.81499 5.08335,145.598 m 0,-3.5e-4 v -18.6953 m 0,0 c 0.3766849,-0.21699 -0.2689843,-0.86219 -0.4857,-0.48535 m 6e-7,-3.5e-4 H 0 m 0,0 v -32.8333 m 4.5976506,0 H 0 m 4.5976506,0 C 4.814779,93.95964 5.4596177,93.314867 5.08335,93.0977 m 0,-4.9e-5 V 74.402349 m 0,0 C 5.459618,74.185182 4.8147774,73.540409 4.59765,73.9167 m 6e-7,-5e-5 H 0 m 0,0 v -32.8333 m 4.5976506,0 H 0 m 4.5976506,0 C 4.814779,41.45964 5.4596177,40.814867 5.08335,40.5977 m 0,-4.9e-5 V 21.902349 m 0,0 C 5.459618,21.685182 4.8147774,21.040409 4.59765,21.4167 m 6e-7,-5e-5 H 0 m 0,0 V 0 m 0,0 h 21.41665 m 0,4.5976506 V 0 m 0,4.5976506 C 21.04036,4.814779 21.685133,5.4596177 21.9023,5.08335 m 4.9e-5,0 h 18.695302 m 0,0 c 0.217167,0.376268 0.86194,-0.2685726 0.485649,-0.4857 m 5e-5,6e-7 V 0 m 0,0 h 42.8333 m 0,4.5976506 V 0 m 0,4.5976506 C 83.54036,4.814779 84.185133,5.4596177 84.4023,5.08335 m 4.9e-5,0 h 18.695301 m 0,0 c 0.21699,0.3766849 0.86219,-0.2689843 0.48535,-0.4857 m 3.5e-4,6e-7 V 0 m 0,0 h 42.8333 m 0,4.5976506 V 0 m 0,4.5976506 c -0.37684,0.2167153 0.26836,0.8623854 0.48535,0.4856994 m 3.5e-4,0 h 18.6953 m 0,0 c 0.21699,0.3766849 0.86219,-0.2689843 0.48535,-0.4857 m 3.5e-4,6e-7 V 0 m 0,0 h 42.8333 m 0,4.5976506 V 0 m 0,4.5976506 c -0.37684,0.2167153 0.26836,0.8623854 0.48535,0.4856994 m 3.5e-4,0 h 18.6953 m 0,0 c 0.21699,0.3766849 0.86219,-0.2689843 0.48535,-0.4857 m 3.5e-4,6e-7 V 0 m 0,0 h 42.8333 m 0,4.5976506 V 0 m 0,4.5976506 c -0.37684,0.2167153 0.26836,0.8623854 0.48535,0.4856994 m 3.5e-4,0 h 18.6953 m 0,0 c 0.21699,0.3766849 0.86219,-0.2689843 0.48535,-0.4857 m 3.5e-4,6e-7 V 0 m 0,0 h 42.8333 m 0,4.5976506 V 0 m 0,4.5976506 c -0.37684,0.2167153 0.26836,0.8623854 0.48535,0.4856994 m 3.5e-4,0 h 18.6953 m 0,0 c 0.21699,0.3766849 0.86219,-0.2689843 0.48535,-0.4857 m 3.5e-4,6e-7 V 0 m 0,0 h 42.8333 m 0,4.5976506 V 0 m 0,4.5976506 c -0.37684,0.2167153 0.26836,0.8623854 0.48535,0.4856994 m 3.5e-4,0 h 18.6953 m 0,0 c 0.21699,0.3766849 0.86219,-0.2689843 0.48535,-0.4857 m 3.5e-4,6e-7 V 0 m 0,0 h 42.8333 m 0,4.5976506 V 0 m 0,4.5976506 C 458.53981,4.8143659 459.18501,5.460036 459.402,5.08335 M 458.91665,220 v -4.59765 L 459.402,5.08335"
         sodipodi:nodetypes="ccccccccccccccccccccccccccccccccccccccccccccccccccccccccccccccccccccccccccccccccccccccccccccccccccccccccccccccccccccccccccccccccccccccccccccccccccccccccccccccccccccccccccccccccccccccccccccccccccccccccccccccccccccccccccccccccccccccccccccccccccccccccccccccccc" />
      <title
         id="title1">b'Shape2DView'</title>
    </g>
  </g>
</svg>
