<?xml version="1.0" encoding="UTF-8" standalone="no"?>
<svg
   width="350mm"
   height="233mm"
   viewBox="-125 -225 350 233"
   version="1.1"
   id="svg1"
   sodipodi:docname="krabice_tvary_kerf.svg"
   inkscape:version="1.4.2 (ebf0e940d0, 2025-05-08)"
   xmlns:inkscape="http://www.inkscape.org/namespaces/inkscape"
   xmlns:sodipodi="http://sodipodi.sourceforge.net/DTD/sodipodi-0.dtd"
   xmlns="http://www.w3.org/2000/svg"
   xmlns:svg="http://www.w3.org/2000/svg">
  <defs
     id="defs1" />
  <sodipodi:namedview
     id="namedview1"
     pagecolor="#ffffff"
     bordercolor="#666666"
     borderopacity="1.0"
     inkscape:showpageshadow="2"
     inkscape:pageopacity="0.0"
     inkscape:pagecheckerboard="0"
     inkscape:deskcolor="#d1d1d1"
     inkscape:document-units="mm"
     inkscape:zoom="0.53437165"
     inkscape:cx="369.59296"
     inkscape:cy="397.66331"
     inkscape:window-width="1920"
     inkscape:window-height="1095"
     inkscape:window-x="0"
     inkscape:window-y="0"
     inkscape:window-maximized="1"
     inkscape:current-layer="svg1" />
  <title
     id="title1">OpenSCAD Model</title>
  <path
     id="path1"
     style="fill:none;stroke:#000000;stroke-opacity:1;stroke-width:0.0254;stroke-dasharray:none"
     d="M -116.00107 -224.00109 L -116.00107 -216.00107 L -124.00109 -216.00107 L -124.00109 -204.89012 L -116.00107 -204.89012 L -116.00107 -193.77917 L -124.00109 -193.77917 L -124.00109 -182.66822 L -116.00107 -182.66822 L -116.00107 -171.55675 L -124.00109 -171.55675 L -124.00109 -160.44477 L -116.00107 -160.44477 L -116.00107 -149.33382 L -124.00109 -149.33382 L -124.00109 -138.22287 L -116.00107 -138.22287 L -116.00107 -127.11192 L -124.00109 -127.11192 L -124.00109 -116.00097 L -116.00107 -116.00097 L -116.00107 -108.00094 L -104.89012 -108.00094 L -104.89012 -116.00097 L -93.77865 -116.00097 L -93.77865 -108.00094 L -82.6677 -108.00094 L -82.6677 -116.00097 L -71.55675 -116.00097 L -71.55675 -108.00094 L -60.445284 -108.00094 L -60.445284 -116.00097 L -49.334334 -116.00097 L -49.334334 -108.00094 L -38.223385 -108.00094 L -38.223385 -116.00097 L -27.111918 -116.00097 L -27.111918 -108.00094 L -16.000968 -108.00094 L -16.000968 -116.00097 L -8.0009399 -116.00097 L -8.0009399 -127.11192 L -16.000968 -127.11192 L -16.000968 -138.22287 L -8.0009399 -138.22287 L -8.0009399 -149.33382 L -16.000968 -149.33382 L -16.000968 -160.44477 L -8.0009399 -160.44477 L -8.0009399 -171.55675 L -16.000968 -171.55675 L -16.000968 -182.66822 L -8.0009399 -182.66822 L -8.0009399 -193.77917 L -16.000968 -193.77917 L -16.000968 -204.89012 L -8.0009399 -204.89012 L -8.0009399 -216.00107 L -16.000968 -216.00107 L -16.000968 -224.00109 L -27.111918 -224.00109 L -27.111918 -216.00107 L -38.223385 -216.00107 L -38.223385 -224.00109 L -49.334334 -224.00109 L -49.334334 -216.00107 L -60.445284 -216.00107 L -60.445284 -224.00109 L -71.55675 -224.00109 L -71.55675 -216.00107 L -82.6677 -216.00107 L -82.6677 -224.00109 L -93.77865 -224.00109 L -93.77865 -216.00107 L -104.89012 -216.00107 L -104.89012 -224.00109 L -116.00107 -224.00109 z M 0.00012207031 -224.00109 L 0.00012207031 -205.14023 L -7.9999064 -205.14023 L -7.9999064 -193.52905 L 0.00012207031 -193.52905 L 0.00012207031 -182.91781 L -7.9999064 -182.91781 L -7.9999064 -171.30715 L 0.00012207031 -171.30715 L 0.00012207031 -160.69488 L -7.9999064 -160.69488 L -7.9999064 -149.08422 L 0.00012207031 -149.08422 L 0.00012207031 -138.47298 L -7.9999064 -138.47298 L -7.9999064 -126.8618 L 0.00012207031 -126.8618 L 0.00012207031 -108.00094 L 11.111072 -108.00094 L 11.111072 -116.00097 L 22.222021 -116.00097 L 22.222021 -108.00094 L 33.333488 -108.00094 L 33.333488 -116.00097 L 44.444438 -116.00097 L 44.444438 -108.00094 L 55.555387 -108.00094 L 55.555387 -116.00097 L 66.666854 -116.00097 L 66.666854 -108.00094 L 77.777804 -108.00094 L 77.777804 -116.00097 L 88.888753 -116.00097 L 88.888753 -108.00094 L 100.00022 -108.00094 L 100.00022 -126.8618 L 108.00025 -126.8618 L 108.00025 -138.47298 L 100.00022 -138.47298 L 100.00022 -149.08422 L 108.00025 -149.08422 L 108.00025 -160.69488 L 100.00022 -160.69488 L 100.00022 -171.30715 L 108.00025 -171.30715 L 108.00025 -182.91781 L 100.00022 -182.91781 L 100.00022 -193.52905 L 108.00025 -193.52905 L 108.00025 -205.14023 L 100.00022 -205.14023 L 100.00022 -224.00109 L 88.888753 -224.00109 L 88.888753 -216.00107 L 77.777804 -216.00107 L 77.777804 -224.00109 L 66.666854 -224.00109 L 66.666854 -216.00107 L 55.555387 -216.00107 L 55.555387 -224.00109 L 44.444438 -224.00109 L 44.444438 -216.00107 L 33.333488 -216.00107 L 33.333488 -224.00109 L 22.222021 -224.00109 L 22.222021 -216.00107 L 11.111072 -216.00107 L 11.111072 -224.00109 L 0.00012207031 -224.00109 z M 116.00079 -224.00109 L 116.00079 -205.14023 L 108.00076 -205.14023 L 108.00076 -193.52905 L 116.00079 -193.52905 L 116.00079 -182.91781 L 108.00076 -182.91781 L 108.00076 -171.30715 L 116.00079 -171.30715 L 116.00079 -160.69488 L 108.00076 -160.69488 L 108.00076 -149.08422 L 116.00079 -149.08422 L 116.00079 -138.47298 L 108.00076 -138.47298 L 108.00076 -126.8618 L 116.00079 -126.8618 L 116.00079 -108.00094 L 127.11174 -108.00094 L 127.11174 -116.00097 L 138.22321 -116.00097 L 138.22321 -108.00094 L 149.33416 -108.00094 L 149.33416 -116.00097 L 160.44511 -116.00097 L 160.44511 -108.00094 L 171.55709 -108.00094 L 171.55709 -116.00097 L 182.66804 -116.00097 L 182.66804 -108.00094 L 193.77899 -108.00094 L 193.77899 -116.00097 L 204.88994 -116.00097 L 204.88994 -108.00094 L 216.00089 -108.00094 L 216.00089 -126.8618 L 224.00092 -126.8618 L 224.00092 -138.47298 L 216.00089 -138.47298 L 216.00089 -149.08422 L 224.00092 -149.08422 L 224.00092 -160.69488 L 216.00089 -160.69488 L 216.00089 -171.30715 L 224.00092 -171.30715 L 224.00092 -182.91781 L 216.00089 -182.91781 L 216.00089 -193.52905 L 224.00092 -193.52905 L 224.00092 -205.14023 L 216.00089 -205.14023 L 216.00089 -224.00109 L 204.88994 -224.00109 L 204.88994 -216.00107 L 193.77899 -216.00107 L 193.77899 -224.00109 L 182.66804 -224.00109 L 182.66804 -216.00107 L 171.55709 -216.00107 L 171.55709 -224.00109 L 160.44511 -224.00109 L 160.44511 -216.00107 L 149.33416 -216.00107 L 149.33416 -224.00109 L 138.22321 -224.00109 L 138.22321 -216.00107 L 127.11174 -216.00107 L 127.11174 -224.00109 L 116.00079 -224.00109 z M -66.001017 -187.66791 L -56.001111 -166.00102 L -66.001017 -144.33412 L -76.000924 -166.00102 L -66.001017 -187.66791 z M 171.15092 -181.85225 L 172.74307 -170.89891 L 182.66804 -166.00102 L 172.74307 -161.10313 L 171.15092 -150.14979 L 163.42581 -158.07592 L 152.51691 -156.20523 L 157.66802 -166.00102 L 152.51691 -175.7968 L 163.42581 -173.92611 L 171.15092 -181.85225 z M 50.000171 -180.43476 L 66.666854 -151.56676 L 33.333488 -151.56676 L 50.000171 -180.43476 z M -68.084094 -177.66801 L -68.084094 -154.33403 L -63.91794 -154.33403 L -63.91794 -177.66801 L -68.084094 -177.66801 z M -116.00107 -107.99991 L -116.00107 -99.999878 L -124.00109 -99.999878 L -124.00109 -88.888928 L -116.00107 -88.888928 L -116.00107 -77.777979 L -124.00109 -77.777979 L -124.00109 -66.666512 L -116.00107 -66.666512 L -116.00107 -55.555562 L -124.00109 -55.555562 L -124.00109 -44.444613 L -116.00107 -44.444613 L -116.00107 -33.333146 L -124.00109 -33.333146 L -124.00109 -22.222196 L -116.00107 -22.222196 L -116.00107 -11.111247 L -124.00109 -11.111247 L -124.00109 0.00021972656 L -116.00107 0.00021972656 L -116.00107 8.0002482 L -104.89012 8.0002482 L -104.89012 0.00021972656 L -93.77865 0.00021972656 L -93.77865 8.0002482 L -82.6677 8.0002482 L -82.6677 0.00021972656 L -71.55675 0.00021972656 L -71.55675 8.0002482 L -60.445284 8.0002482 L -60.445284 0.00021972656 L -49.334334 0.00021972656 L -49.334334 8.0002482 L -38.223385 8.0002482 L -38.223385 0.00021972656 L -27.111918 0.00021972656 L -27.111918 8.0002482 L -16.000968 8.0002482 L -16.000968 0.00021972656 L -8.0009399 0.00021972656 L -8.0009399 -11.111247 L -16.000968 -11.111247 L -16.000968 -22.222196 L -8.0009399 -22.222196 L -8.0009399 -33.333146 L -16.000968 -33.333146 L -16.000968 -44.444613 L -8.0009399 -44.444613 L -8.0009399 -55.555562 L -16.000968 -55.555562 L -16.000968 -66.666512 L -8.0009399 -66.666512 L -8.0009399 -77.777979 L -16.000968 -77.777979 L -16.000968 -88.888928 L -8.0009399 -88.888928 L -8.0009399 -99.999878 L -16.000968 -99.999878 L -16.000968 -107.99991 L -27.111918 -107.99991 L -27.111918 -99.999878 L -38.223385 -99.999878 L -38.223385 -107.99991 L -49.334334 -107.99991 L -49.334334 -99.999878 L -60.445284 -99.999878 L -60.445284 -107.99991 L -71.55675 -107.99991 L -71.55675 -99.999878 L -82.6677 -99.999878 L -82.6677 -107.99991 L -93.77865 -107.99991 L -93.77865 -99.999878 L -104.89012 -99.999878 L -104.89012 -107.99991 L -116.00107 -107.99991 z M 10.860958 -107.99991 L 10.860958 -99.999878 L 0.00012207031 -99.999878 L 0.00012207031 -89.139042 L -7.9999064 -89.139042 L -7.9999064 -77.527865 L 0.00012207031 -77.527865 L 0.00012207031 -66.916626 L -7.9999064 -66.916626 L -7.9999064 -55.305448 L 0.00012207031 -55.305448 L 0.00012207031 -44.69421 L -7.9999064 -44.69421 L -7.9999064 -33.083549 L 0.00012207031 -33.083549 L 0.00012207031 -22.47231 L -7.9999064 -22.47231 L -7.9999064 -10.861133 L 0.00012207031 -10.861133 L 0.00012207031 0.00021972656 L 10.860958 0.00021972656 L 10.860958 8.0002482 L 22.472135 8.0002482 L 22.472135 0.00021972656 L 33.083374 0.00021972656 L 33.083374 8.0002482 L 44.694552 8.0002482 L 44.694552 0.00021972656 L 55.30579 0.00021972656 L 55.30579 8.0002482 L 66.916451 8.0002482 L 66.916451 0.00021972656 L 77.52769 0.00021972656 L 77.52769 8.0002482 L 89.138867 8.0002482 L 89.138867 0.00021972656 L 100.00022 0.00021972656 L 100.00022 -10.861133 L 108.00025 -10.861133 L 108.00025 -22.47231 L 100.00022 -22.47231 L 100.00022 -33.083549 L 108.00025 -33.083549 L 108.00025 -44.69421 L 100.00022 -44.69421 L 100.00022 -55.305448 L 108.00025 -55.305448 L 108.00025 -66.916626 L 100.00022 -66.916626 L 100.00022 -77.527865 L 108.00025 -77.527865 L 108.00025 -89.139042 L 100.00022 -89.139042 L 100.00022 -99.999878 L 89.138867 -99.999878 L 89.138867 -107.99991 L 77.52769 -107.99991 L 77.52769 -99.999878 L 66.916451 -99.999878 L 66.916451 -107.99991 L 55.30579 -107.99991 L 55.30579 -99.999878 L 44.694552 -99.999878 L 44.694552 -107.99991 L 33.083374 -107.99991 L 33.083374 -99.999878 L 22.472135 -99.999878 L 22.472135 -107.99991 L 10.860958 -107.99991 z M 126.86215 -107.99991 L 126.86215 -99.999878 L 116.00079 -99.999878 L 116.00079 -89.139042 L 108.00076 -89.139042 L 108.00076 -77.527865 L 116.00079 -77.527865 L 116.00079 -66.916626 L 108.00076 -66.916626 L 108.00076 -55.305448 L 116.00079 -55.305448 L 116.00079 -44.69421 L 108.00076 -44.69421 L 108.00076 -33.083549 L 116.00079 -33.083549 L 116.00079 -22.47231 L 108.00076 -22.47231 L 108.00076 -10.861133 L 116.00079 -10.861133 L 116.00079 0.00021972656 L 126.86215 0.00021972656 L 126.86215 8.0002482 L 138.47281 8.0002482 L 138.47281 0.00021972656 L 149.08405 0.00021972656 L 149.08405 8.0002482 L 160.69522 8.0002482 L 160.69522 0.00021972656 L 171.30698 0.00021972656 L 171.30698 8.0002482 L 182.91816 8.0002482 L 182.91816 0.00021972656 L 193.52888 0.00021972656 L 193.52888 8.0002482 L 205.14006 8.0002482 L 205.14006 0.00021972656 L 216.00089 0.00021972656 L 216.00089 -10.861133 L 224.00092 -10.861133 L 224.00092 -22.47231 L 216.00089 -22.47231 L 216.00089 -33.083549 L 224.00092 -33.083549 L 224.00092 -44.69421 L 216.00089 -44.69421 L 216.00089 -55.305448 L 224.00092 -55.305448 L 224.00092 -66.916626 L 216.00089 -66.916626 L 216.00089 -77.527865 L 224.00092 -77.527865 L 224.00092 -89.139042 L 216.00089 -89.139042 L 216.00089 -99.999878 L 205.14006 -99.999878 L 205.14006 -107.99991 L 193.52888 -107.99991 L 193.52888 -99.999878 L 182.91816 -99.999878 L 182.91816 -107.99991 L 171.30698 -107.99991 L 171.30698 -99.999878 L 160.69522 -99.999878 L 160.69522 -107.99991 L 149.08405 -107.99991 L 149.08405 -99.999878 L 138.47281 -99.999878 L 138.47281 -107.99991 L 126.86215 -107.99991 z M 33.333488 -66.666512 L 66.666854 -66.666512 L 66.666854 -33.333146 L 33.333488 -33.333146 L 33.333488 -66.666512 z M 164.95388 -66.633956 L 167.04781 -66.633956 L 169.12417 -66.37144 L 171.15092 -65.851058 L 173.09705 -65.080562 L 174.93105 -64.072355 L 176.625 -62.841939 L 178.14997 -61.408952 L 179.48477 -59.796647 L 180.60615 -58.029313 L 181.49705 -56.135372 L 182.14404 -54.144796 L 182.53575 -52.089107 L 182.66804 -49.999829 L 182.53575 -47.911068 L 182.14404 -45.855379 L 181.49705 -43.864803 L 180.60615 -41.970862 L 179.48477 -40.203528 L 178.14997 -38.590706 L 176.625 -37.158236 L 174.93105 -35.92782 L 173.09705 -34.919613 L 171.15092 -34.149117 L 169.12417 -33.628735 L 167.04781 -33.366219 L 164.95388 -33.366219 L 162.87804 -33.628735 L 160.85077 -34.149117 L 158.90515 -34.919613 L 157.07115 -35.92782 L 155.3772 -37.158236 L 153.85223 -38.590706 L 152.51691 -40.203528 L 151.39605 -41.970862 L 150.50515 -43.864803 L 149.85816 -45.855379 L 149.46593 -47.911068 L 149.33416 -49.999829 L 149.46593 -52.089107 L 149.85816 -54.144796 L 150.50515 -56.135372 L 151.39605 -58.029313 L 152.51691 -59.796647 L 153.85223 -61.408952 L 155.3772 -62.841939 L 157.07115 -64.072355 L 158.90515 -65.080562 L 160.85077 -65.851058 L 162.87804 -66.37144 L 164.95388 -66.633956 z M -74.334359 -58.333171 L -73.030562 -58.230851 L -71.759322 -57.925444 L -70.551127 -57.425216 L -69.43595 -56.742053 L -68.441695 -55.892493 L -67.592651 -54.898238 L -66.909489 -53.783061 L -66.408744 -52.574866 L -66.103853 -51.303625 L -66.001017 -49.999829 L -65.898181 -51.303625 L -65.59329 -52.574866 L -65.092546 -53.783061 L -64.409383 -54.898238 L -63.560339 -55.892493 L -62.566085 -56.742053 L -61.450907 -57.425216 L -60.242712 -57.925444 L -58.971472 -58.230851 L -57.667676 -58.333171 L -56.363879 -58.230851 L -55.092639 -57.925444 L -53.884444 -57.425216 L -52.769267 -56.742053 L -51.775012 -55.892493 L -50.925968 -54.898238 L -50.242806 -53.783061 L -49.742061 -52.574866 L -49.436654 -51.303625 L -49.334334 -49.999829 L -49.436654 -48.696549 L -49.742061 -47.424792 L -50.242806 -46.216597 L -50.925968 -45.101937 L -51.775012 -44.107682 L -52.769267 -43.258122 L -53.884444 -42.574959 L -54.954663 -42.131576 L -66.001017 -26.666886 L -77.047371 -42.131576 L -78.11759 -42.574959 L -79.232251 -43.258122 L -80.227022 -44.107682 L -81.076066 -45.101937 L -81.759229 -46.216597 L -82.259973 -47.424792 L -82.564864 -48.696549 L -82.6677 -49.999829 L -82.564864 -51.303625 L -82.259973 -52.574866 L -81.759229 -53.783061 L -81.076066 -54.898238 L -80.227022 -55.892493 L -79.232251 -56.742053 L -78.11759 -57.425216 L -76.909395 -57.925444 L -75.638155 -58.230851 L -74.334359 -58.333171 z " />
</svg>
