  0
SECTION
  2
HEADER
  9
$ACADVER
  1
AC1014
  9
$HANDSEED
  5
FFFF
  9
$INSUNITS
 70
     4
  9
$MEASUREMENT
 70
     1
  0
ENDSEC
  0
SECTION
  2
TABLES
  0
TABLE
  2
VPORT
  5
8
330
0
100
AcDbSymbolTable
 70
     4
  0
VPORT
  5
2E
330
8
100
AcDbSymbolTableRecord
100
AcDbViewportTableRecord
  2
*ACTIVE
 70
     0
 10
0.0
 20
0.0
 11
1.0
 21
1.0
 12
210.0
 22
148.5
 13
0.0
 23
0.0
 14
10.0
 24
10.0
 15
10.0
 25
10.0
 16
0.0
 26
0.0
 36
1.0
 17
0.0
 27
0.0
 37
0.0
 40
341.0
 41
1.24
 42
50.0
 43
0.0
 44
0.0
 50
0.0
 51
0.0
 71
     0
 72
   100
 73
     1
 74
     3
 75
     0
 76
     0
 77
     0
 78
     0
  0
ENDTAB
  0
TABLE
  2
LTYPE
  5
5
330
0
100
AcDbSymbolTable
 70
     1
  0
LTYPE
  5
14
330
5
100
AcDbSymbolTableRecord
100
AcDbLinetypeTableRecord
  2
BYBLOCK
 70
     0
  3

 72
    65
 73
     0
 40
0.0
  0
LTYPE
  5
15
330
5
100
AcDbSymbolTableRecord
100
AcDbLinetypeTableRecord
  2
BYLAYER
 70
     0
  3

 72
    65
 73
     0
 40
0.0
  0
LTYPE
  5
16
330
5
100
AcDbSymbolTableRecord
100
AcDbLinetypeTableRecord
  2
CONTINUOUS
 70
     0
  3
Solid line
 72
    65
 73
     0
 40
0.0
  0
ENDTAB
  0
TABLE
  2
LAYER
  5
2
100
AcDbSymbolTable
 70
1
  0
LAYER
  5
50
100
AcDbSymbolTableRecord
100
AcDbLayerTableRecord
  2
0
 70
0
  6
CONTINUOUS
  0
ENDTAB
  0
TABLE
  2
STYLE
  5
3
330
0
100
AcDbSymbolTable
 70
     1
  0
STYLE
  5
11
330
3
100
AcDbSymbolTableRecord
100
AcDbTextStyleTableRecord
  2
STANDARD
 70
     0
 40
0.0
 41
1.0
 50
0.0
 71
     0
 42
2.5
  3
txt
  4

  0
ENDTAB
  0
TABLE
  2
VIEW
  5
6
330
0
100
AcDbSymbolTable
 70
     0
  0
ENDTAB
  0
TABLE
  2
UCS
  5
7
330
0
100
AcDbSymbolTable
 70
     0
  0
ENDTAB
  0
TABLE
  2
APPID
  5
9
330
0
100
AcDbSymbolTable
 70
     2
  0
APPID
  5
12
330
9
100
AcDbSymbolTableRecord
100
AcDbRegAppTableRecord
  2
ACAD
 70
     0
  0
ENDTAB
  0
TABLE
  2
DIMSTYLE
  5
A
330
0
100
AcDbSymbolTable
 70
     1
  0
DIMSTYLE
105
27
330
A
100
AcDbSymbolTableRecord
100
AcDbDimStyleTableRecord
  2
ISO-25
 70
     0
  3

  4

  5

  6

  7

 40
1.0
 41
2.5
 42
0.625
 43
3.75
 44
1.25
 45
0.0
 46
0.0
 47
0.0
 48
0.0
140
2.5
141
2.5
142
0.0
143
0.03937007874016
144
1.0
145
0.0
146
1.0
147
0.625
 71
     0
 72
     0
 73
     0
 74
     0
 75
     0
 76
     0
 77
     1
 78
     8
170
     0
171
     3
172
     1
173
     0
174
     0
175
     0
176
     0
177
     0
178
     0
270
     2
271
     2
272
     2
273
     2
274
     3
340
11
275
     0
280
     0
281
     0
282
     0
283
     0
284
     8
285
     0
286
     0
287
     3
288
     0
  0
ENDTAB
  0
TABLE
  2
BLOCK_RECORD
  5
1
330
0
100
AcDbSymbolTable
 70
     1
  0
BLOCK_RECORD
  5
1F
330
1
100
AcDbSymbolTableRecord
100
AcDbBlockTableRecord
  2
*MODEL_SPACE
  0
BLOCK_RECORD
  5
1B
330
1
100
AcDbSymbolTableRecord
100
AcDbBlockTableRecord
  2
*PAPER_SPACE
  0
ENDTAB
  0
ENDSEC
  0
SECTION
  2
BLOCKS
  0
BLOCK
  5
20
330
1F
100
AcDbEntity
  8
0
100
AcDbBlockBegin
  2
*MODEL_SPACE
 70
     0
 10
0.0
 20
0.0
 30
0.0
  3
*MODEL_SPACE
  1

  0
ENDBLK
  5
21
330
1F
100
AcDbEntity
  8
0
100
AcDbBlockEnd
  0
BLOCK
  5
1C
330
1B
100
AcDbEntity
 67
     1
  8
0
100
AcDbBlockBegin
  2
*PAPER_SPACE
  1

  0
ENDBLK
  5
1D
330
1B
100
AcDbEntity
 67
     1
  8
0
100
AcDbBlockEnd
  0
ENDSEC
  0
SECTION
  2
ENTITIES
  0
LWPOLYLINE
  5
100
100
AcDbEntity
  8
0
 62
7
100
AcDbPolyline
 90
76
 70
1
 10
-1.690715
 20
15.860411
 30
0.0
 10
-1.690715
 20
15.702941
 30
0.0
 10
-1.848206
 20
15.702941
 30
0.0
 10
-1.848206
 20
15.265502
 30
0.0
 10
-1.690715
 20
15.265502
 30
0.0
 10
-1.690715
 20
14.828063
 30
0.0
 10
-1.848206
 20
14.828063
 30
0.0
 10
-1.848206
 20
14.390603
 30
0.0
 10
-1.690715
 20
14.390603
 30
0.0
 10
-1.690715
 20
13.953164
 30
0.0
 10
-1.848206
 20
13.953164
 30
0.0
 10
-1.848206
 20
13.515685
 30
0.0
 10
-1.690715
 20
13.515685
 30
0.0
 10
-1.690715
 20
13.078246
 30
0.0
 10
-1.848206
 20
13.078246
 30
0.0
 10
-1.848206
 20
12.640807
 30
0.0
 10
-1.690715
 20
12.640807
 30
0.0
 10
-1.690715
 20
12.203368
 30
0.0
 10
-1.848206
 20
12.203368
 30
0.0
 10
-1.848206
 20
11.765929
 30
0.0
 10
-1.690715
 20
11.765929
 30
0.0
 10
-1.690715
 20
11.608438
 30
0.0
 10
-1.253276
 20
11.608438
 30
0.0
 10
-1.253276
 20
11.765929
 30
0.0
 10
-0.815837
 20
11.765929
 30
0.0
 10
-0.815837
 20
11.608438
 30
0.0
 10
-0.378378
 20
11.608438
 30
0.0
 10
-0.378378
 20
11.765929
 30
0.0
 10
0.059061
 20
11.765929
 30
0.0
 10
0.059061
 20
11.608438
 30
0.0
 10
0.496500
 20
11.608438
 30
0.0
 10
0.496500
 20
11.765929
 30
0.0
 10
0.933959
 20
11.765929
 30
0.0
 10
0.933959
 20
11.608438
 30
0.0
 10
1.371398
 20
11.608438
 30
0.0
 10
1.371398
 20
11.765929
 30
0.0
 10
1.808837
 20
11.765929
 30
0.0
 10
1.808837
 20
11.608438
 30
0.0
 10
2.246297
 20
11.608438
 30
0.0
 10
2.246297
 20
11.765929
 30
0.0
 10
2.403767
 20
11.765929
 30
0.0
 10
2.403767
 20
12.203368
 30
0.0
 10
2.246297
 20
12.203368
 30
0.0
 10
2.246297
 20
12.640807
 30
0.0
 10
2.403767
 20
12.640807
 30
0.0
 10
2.403767
 20
13.078246
 30
0.0
 10
2.246297
 20
13.078246
 30
0.0
 10
2.246297
 20
13.515685
 30
0.0
 10
2.403767
 20
13.515685
 30
0.0
 10
2.403767
 20
13.953164
 30
0.0
 10
2.246297
 20
13.953164
 30
0.0
 10
2.246297
 20
14.390603
 30
0.0
 10
2.403767
 20
14.390603
 30
0.0
 10
2.403767
 20
14.828063
 30
0.0
 10
2.246297
 20
14.828063
 30
0.0
 10
2.246297
 20
15.265502
 30
0.0
 10
2.403767
 20
15.265502
 30
0.0
 10
2.403767
 20
15.702941
 30
0.0
 10
2.246297
 20
15.702941
 30
0.0
 10
2.246297
 20
15.860411
 30
0.0
 10
1.808837
 20
15.860411
 30
0.0
 10
1.808837
 20
15.702941
 30
0.0
 10
1.371398
 20
15.702941
 30
0.0
 10
1.371398
 20
15.860411
 30
0.0
 10
0.933959
 20
15.860411
 30
0.0
 10
0.933959
 20
15.702941
 30
0.0
 10
0.496500
 20
15.702941
 30
0.0
 10
0.496500
 20
15.860411
 30
0.0
 10
0.059061
 20
15.860411
 30
0.0
 10
0.059061
 20
15.702941
 30
0.0
 10
-0.378378
 20
15.702941
 30
0.0
 10
-0.378378
 20
15.860411
 30
0.0
 10
-0.815837
 20
15.860411
 30
0.0
 10
-0.815837
 20
15.702941
 30
0.0
 10
-1.253276
 20
15.702941
 30
0.0
 10
-1.253276
 20
15.860411
 30
0.0
  0
LWPOLYLINE
  5
101
100
AcDbEntity
  8
0
 62
7
100
AcDbPolyline
 90
68
 70
1
 10
2.561299
 20
15.860411
 30
0.0
 10
2.561299
 20
15.265502
 30
0.0
 10
2.403808
 20
15.265502
 30
0.0
 10
2.403808
 20
14.828063
 30
0.0
 10
2.561299
 20
14.828063
 30
0.0
 10
2.561299
 20
14.390603
 30
0.0
 10
2.403808
 20
14.390603
 30
0.0
 10
2.403808
 20
13.953164
 30
0.0
 10
2.561299
 20
13.953164
 30
0.0
 10
2.561299
 20
13.515685
 30
0.0
 10
2.403808
 20
13.515685
 30
0.0
 10
2.403808
 20
13.078246
 30
0.0
 10
2.561299
 20
13.078246
 30
0.0
 10
2.561299
 20
12.640807
 30
0.0
 10
2.403808
 20
12.640807
 30
0.0
 10
2.403808
 20
12.203368
 30
0.0
 10
2.561299
 20
12.203368
 30
0.0
 10
2.561299
 20
11.608438
 30
0.0
 10
2.998738
 20
11.608438
 30
0.0
 10
2.998738
 20
11.765929
 30
0.0
 10
3.436177
 20
11.765929
 30
0.0
 10
3.436177
 20
11.608438
 30
0.0
 10
3.873616
 20
11.608438
 30
0.0
 10
3.873616
 20
11.765929
 30
0.0
 10
4.311075
 20
11.765929
 30
0.0
 10
4.311075
 20
11.608438
 30
0.0
 10
4.748514
 20
11.608438
 30
0.0
 10
4.748514
 20
11.765929
 30
0.0
 10
5.185953
 20
11.765929
 30
0.0
 10
5.185953
 20
11.608438
 30
0.0
 10
5.623413
 20
11.608438
 30
0.0
 10
5.623413
 20
11.765929
 30
0.0
 10
6.060852
 20
11.765929
 30
0.0
 10
6.060852
 20
11.608438
 30
0.0
 10
6.498291
 20
11.608438
 30
0.0
 10
6.498291
 20
12.203368
 30
0.0
 10
6.655782
 20
12.203368
 30
0.0
 10
6.655782
 20
12.640807
 30
0.0
 10
6.498291
 20
12.640807
 30
0.0
 10
6.498291
 20
13.078246
 30
0.0
 10
6.655782
 20
13.078246
 30
0.0
 10
6.655782
 20
13.515685
 30
0.0
 10
6.498291
 20
13.515685
 30
0.0
 10
6.498291
 20
13.953164
 30
0.0
 10
6.655782
 20
13.953164
 30
0.0
 10
6.655782
 20
14.390603
 30
0.0
 10
6.498291
 20
14.390603
 30
0.0
 10
6.498291
 20
14.828063
 30
0.0
 10
6.655782
 20
14.828063
 30
0.0
 10
6.655782
 20
15.265502
 30
0.0
 10
6.498291
 20
15.265502
 30
0.0
 10
6.498291
 20
15.860411
 30
0.0
 10
6.060852
 20
15.860411
 30
0.0
 10
6.060852
 20
15.702941
 30
0.0
 10
5.623413
 20
15.702941
 30
0.0
 10
5.623413
 20
15.860411
 30
0.0
 10
5.185953
 20
15.860411
 30
0.0
 10
5.185953
 20
15.702941
 30
0.0
 10
4.748514
 20
15.702941
 30
0.0
 10
4.748514
 20
15.860411
 30
0.0
 10
4.311075
 20
15.860411
 30
0.0
 10
4.311075
 20
15.702941
 30
0.0
 10
3.873616
 20
15.702941
 30
0.0
 10
3.873616
 20
15.860411
 30
0.0
 10
3.436177
 20
15.860411
 30
0.0
 10
3.436177
 20
15.702941
 30
0.0
 10
2.998738
 20
15.702941
 30
0.0
 10
2.998738
 20
15.860411
 30
0.0
  0
LWPOLYLINE
  5
102
100
AcDbEntity
  8
0
 62
7
100
AcDbPolyline
 90
68
 70
1
 10
6.813293
 20
15.860411
 30
0.0
 10
6.813293
 20
15.265502
 30
0.0
 10
6.655822
 20
15.265502
 30
0.0
 10
6.655822
 20
14.828063
 30
0.0
 10
6.813293
 20
14.828063
 30
0.0
 10
6.813293
 20
14.390603
 30
0.0
 10
6.655822
 20
14.390603
 30
0.0
 10
6.655822
 20
13.953164
 30
0.0
 10
6.813293
 20
13.953164
 30
0.0
 10
6.813293
 20
13.515685
 30
0.0
 10
6.655822
 20
13.515685
 30
0.0
 10
6.655822
 20
13.078246
 30
0.0
 10
6.813293
 20
13.078246
 30
0.0
 10
6.813293
 20
12.640807
 30
0.0
 10
6.655822
 20
12.640807
 30
0.0
 10
6.655822
 20
12.203368
 30
0.0
 10
6.813293
 20
12.203368
 30
0.0
 10
6.813293
 20
11.608438
 30
0.0
 10
7.250732
 20
11.608438
 30
0.0
 10
7.250732
 20
11.765929
 30
0.0
 10
7.688171
 20
11.765929
 30
0.0
 10
7.688171
 20
11.608438
 30
0.0
 10
8.125630
 20
11.608438
 30
0.0
 10
8.125630
 20
11.765929
 30
0.0
 10
8.563069
 20
11.765929
 30
0.0
 10
8.563069
 20
11.608438
 30
0.0
 10
9.000549
 20
11.608438
 30
0.0
 10
9.000549
 20
11.765929
 30
0.0
 10
9.437988
 20
11.765929
 30
0.0
 10
9.437988
 20
11.608438
 30
0.0
 10
9.875427
 20
11.608438
 30
0.0
 10
9.875427
 20
11.765929
 30
0.0
 10
10.312866
 20
11.765929
 30
0.0
 10
10.312866
 20
11.608438
 30
0.0
 10
10.750305
 20
11.608438
 30
0.0
 10
10.750305
 20
12.203368
 30
0.0
 10
10.907796
 20
12.203368
 30
0.0
 10
10.907796
 20
12.640807
 30
0.0
 10
10.750305
 20
12.640807
 30
0.0
 10
10.750305
 20
13.078246
 30
0.0
 10
10.907796
 20
13.078246
 30
0.0
 10
10.907796
 20
13.515685
 30
0.0
 10
10.750305
 20
13.515685
 30
0.0
 10
10.750305
 20
13.953164
 30
0.0
 10
10.907796
 20
13.953164
 30
0.0
 10
10.907796
 20
14.390603
 30
0.0
 10
10.750305
 20
14.390603
 30
0.0
 10
10.750305
 20
14.828063
 30
0.0
 10
10.907796
 20
14.828063
 30
0.0
 10
10.907796
 20
15.265502
 30
0.0
 10
10.750305
 20
15.265502
 30
0.0
 10
10.750305
 20
15.860411
 30
0.0
 10
10.312866
 20
15.860411
 30
0.0
 10
10.312866
 20
15.702941
 30
0.0
 10
9.875427
 20
15.702941
 30
0.0
 10
9.875427
 20
15.860411
 30
0.0
 10
9.437988
 20
15.860411
 30
0.0
 10
9.437988
 20
15.702941
 30
0.0
 10
9.000549
 20
15.702941
 30
0.0
 10
9.000549
 20
15.860411
 30
0.0
 10
8.563069
 20
15.860411
 30
0.0
 10
8.563069
 20
15.702941
 30
0.0
 10
8.125630
 20
15.702941
 30
0.0
 10
8.125630
 20
15.860411
 30
0.0
 10
7.688171
 20
15.860411
 30
0.0
 10
7.688171
 20
15.702941
 30
0.0
 10
7.250732
 20
15.702941
 30
0.0
 10
7.250732
 20
15.860411
 30
0.0
  0
LWPOLYLINE
  5
103
100
AcDbEntity
  8
0
 62
7
100
AcDbPolyline
 90
4
 70
1
 10
0.277791
 20
14.587462
 30
0.0
 10
0.671488
 20
13.734435
 30
0.0
 10
0.277791
 20
12.881407
 30
0.0
 10
-0.115906
 20
13.734435
 30
0.0
  0
LWPOLYLINE
  5
104
100
AcDbEntity
  8
0
 62
7
100
AcDbPolyline
 90
10
 70
1
 10
8.984558
 20
14.358479
 30
0.0
 10
9.047241
 20
13.927265
 30
0.0
 10
9.437988
 20
13.734435
 30
0.0
 10
9.047241
 20
13.541604
 30
0.0
 10
8.984558
 20
13.110371
 30
0.0
 10
8.680420
 20
13.422423
 30
0.0
 10
8.250935
 20
13.348754
 30
0.0
 10
8.453735
 20
13.734435
 30
0.0
 10
8.250935
 20
14.120096
 30
0.0
 10
8.680420
 20
14.046447
 30
0.0
  0
LWPOLYLINE
  5
105
100
AcDbEntity
  8
0
 62
7
100
AcDbPolyline
 90
3
 70
1
 10
4.529785
 20
14.302692
 30
0.0
 10
5.185953
 20
13.166157
 30
0.0
 10
3.873616
 20
13.166157
 30
0.0
  0
LWPOLYLINE
  5
106
100
AcDbEntity
  8
0
 62
7
100
AcDbPolyline
 90
4
 70
1
 10
0.195759
 20
14.193765
 30
0.0
 10
0.195759
 20
13.275105
 30
0.0
 10
0.359802
 20
13.275105
 30
0.0
 10
0.359802
 20
14.193765
 30
0.0
  0
LWPOLYLINE
  5
107
100
AcDbEntity
  8
0
 62
7
100
AcDbPolyline
 90
76
 70
1
 10
-1.690715
 20
11.608417
 30
0.0
 10
-1.690715
 20
11.450926
 30
0.0
 10
-1.848206
 20
11.450926
 30
0.0
 10
-1.848206
 20
11.013487
 30
0.0
 10
-1.690715
 20
11.013487
 30
0.0
 10
-1.690715
 20
10.576028
 30
0.0
 10
-1.848206
 20
10.576028
 30
0.0
 10
-1.848206
 20
10.138589
 30
0.0
 10
-1.690715
 20
10.138589
 30
0.0
 10
-1.690715
 20
9.701150
 30
0.0
 10
-1.848206
 20
9.701150
 30
0.0
 10
-1.848206
 20
9.263691
 30
0.0
 10
-1.690715
 20
9.263691
 30
0.0
 10
-1.690715
 20
8.826252
 30
0.0
 10
-1.848206
 20
8.826252
 30
0.0
 10
-1.848206
 20
8.388813
 30
0.0
 10
-1.690715
 20
8.388813
 30
0.0
 10
-1.690715
 20
7.951374
 30
0.0
 10
-1.848206
 20
7.951374
 30
0.0
 10
-1.848206
 20
7.513914
 30
0.0
 10
-1.690715
 20
7.513914
 30
0.0
 10
-1.690715
 20
7.356444
 30
0.0
 10
-1.253276
 20
7.356444
 30
0.0
 10
-1.253276
 20
7.513914
 30
0.0
 10
-0.815837
 20
7.513914
 30
0.0
 10
-0.815837
 20
7.356444
 30
0.0
 10
-0.378378
 20
7.356444
 30
0.0
 10
-0.378378
 20
7.513914
 30
0.0
 10
0.059061
 20
7.513914
 30
0.0
 10
0.059061
 20
7.356444
 30
0.0
 10
0.496500
 20
7.356444
 30
0.0
 10
0.496500
 20
7.513914
 30
0.0
 10
0.933959
 20
7.513914
 30
0.0
 10
0.933959
 20
7.356444
 30
0.0
 10
1.371398
 20
7.356444
 30
0.0
 10
1.371398
 20
7.513914
 30
0.0
 10
1.808837
 20
7.513914
 30
0.0
 10
1.808837
 20
7.356444
 30
0.0
 10
2.246297
 20
7.356444
 30
0.0
 10
2.246297
 20
7.513914
 30
0.0
 10
2.403767
 20
7.513914
 30
0.0
 10
2.403767
 20
7.951374
 30
0.0
 10
2.246297
 20
7.951374
 30
0.0
 10
2.246297
 20
8.388813
 30
0.0
 10
2.403767
 20
8.388813
 30
0.0
 10
2.403767
 20
8.826252
 30
0.0
 10
2.246297
 20
8.826252
 30
0.0
 10
2.246297
 20
9.263691
 30
0.0
 10
2.403767
 20
9.263691
 30
0.0
 10
2.403767
 20
9.701150
 30
0.0
 10
2.246297
 20
9.701150
 30
0.0
 10
2.246297
 20
10.138589
 30
0.0
 10
2.403767
 20
10.138589
 30
0.0
 10
2.403767
 20
10.576028
 30
0.0
 10
2.246297
 20
10.576028
 30
0.0
 10
2.246297
 20
11.013487
 30
0.0
 10
2.403767
 20
11.013487
 30
0.0
 10
2.403767
 20
11.450926
 30
0.0
 10
2.246297
 20
11.450926
 30
0.0
 10
2.246297
 20
11.608417
 30
0.0
 10
1.808837
 20
11.608417
 30
0.0
 10
1.808837
 20
11.450926
 30
0.0
 10
1.371398
 20
11.450926
 30
0.0
 10
1.371398
 20
11.608417
 30
0.0
 10
0.933959
 20
11.608417
 30
0.0
 10
0.933959
 20
11.450926
 30
0.0
 10
0.496500
 20
11.450926
 30
0.0
 10
0.496500
 20
11.608417
 30
0.0
 10
0.059061
 20
11.608417
 30
0.0
 10
0.059061
 20
11.450926
 30
0.0
 10
-0.378378
 20
11.450926
 30
0.0
 10
-0.378378
 20
11.608417
 30
0.0
 10
-0.815837
 20
11.608417
 30
0.0
 10
-0.815837
 20
11.450926
 30
0.0
 10
-1.253276
 20
11.450926
 30
0.0
 10
-1.253276
 20
11.608417
 30
0.0
  0
LWPOLYLINE
  5
108
100
AcDbEntity
  8
0
 62
7
100
AcDbPolyline
 90
68
 70
1
 10
2.998738
 20
11.608417
 30
0.0
 10
2.998738
 20
11.450926
 30
0.0
 10
2.561299
 20
11.450926
 30
0.0
 10
2.561299
 20
11.013487
 30
0.0
 10
2.403808
 20
11.013487
 30
0.0
 10
2.403808
 20
10.576028
 30
0.0
 10
2.561299
 20
10.576028
 30
0.0
 10
2.561299
 20
10.138589
 30
0.0
 10
2.403808
 20
10.138589
 30
0.0
 10
2.403808
 20
9.701150
 30
0.0
 10
2.561299
 20
9.701150
 30
0.0
 10
2.561299
 20
9.263691
 30
0.0
 10
2.403808
 20
9.263691
 30
0.0
 10
2.403808
 20
8.826252
 30
0.0
 10
2.561299
 20
8.826252
 30
0.0
 10
2.561299
 20
8.388813
 30
0.0
 10
2.403808
 20
8.388813
 30
0.0
 10
2.403808
 20
7.951374
 30
0.0
 10
2.561299
 20
7.951374
 30
0.0
 10
2.561299
 20
7.513914
 30
0.0
 10
2.998738
 20
7.513914
 30
0.0
 10
2.998738
 20
7.356444
 30
0.0
 10
3.436177
 20
7.356444
 30
0.0
 10
3.436177
 20
7.513914
 30
0.0
 10
3.873616
 20
7.513914
 30
0.0
 10
3.873616
 20
7.356444
 30
0.0
 10
4.311075
 20
7.356444
 30
0.0
 10
4.311075
 20
7.513914
 30
0.0
 10
4.748514
 20
7.513914
 30
0.0
 10
4.748514
 20
7.356444
 30
0.0
 10
5.185953
 20
7.356444
 30
0.0
 10
5.185953
 20
7.513914
 30
0.0
 10
5.623413
 20
7.513914
 30
0.0
 10
5.623413
 20
7.356444
 30
0.0
 10
6.060852
 20
7.356444
 30
0.0
 10
6.060852
 20
7.513914
 30
0.0
 10
6.498291
 20
7.513914
 30
0.0
 10
6.498291
 20
7.951374
 30
0.0
 10
6.655782
 20
7.951374
 30
0.0
 10
6.655782
 20
8.388813
 30
0.0
 10
6.498291
 20
8.388813
 30
0.0
 10
6.498291
 20
8.826252
 30
0.0
 10
6.655782
 20
8.826252
 30
0.0
 10
6.655782
 20
9.263691
 30
0.0
 10
6.498291
 20
9.263691
 30
0.0
 10
6.498291
 20
9.701150
 30
0.0
 10
6.655782
 20
9.701150
 30
0.0
 10
6.655782
 20
10.138589
 30
0.0
 10
6.498291
 20
10.138589
 30
0.0
 10
6.498291
 20
10.576028
 30
0.0
 10
6.655782
 20
10.576028
 30
0.0
 10
6.655782
 20
11.013487
 30
0.0
 10
6.498291
 20
11.013487
 30
0.0
 10
6.498291
 20
11.450926
 30
0.0
 10
6.060852
 20
11.450926
 30
0.0
 10
6.060852
 20
11.608417
 30
0.0
 10
5.623413
 20
11.608417
 30
0.0
 10
5.623413
 20
11.450926
 30
0.0
 10
5.185953
 20
11.450926
 30
0.0
 10
5.185953
 20
11.608417
 30
0.0
 10
4.748514
 20
11.608417
 30
0.0
 10
4.748514
 20
11.450926
 30
0.0
 10
4.311075
 20
11.450926
 30
0.0
 10
4.311075
 20
11.608417
 30
0.0
 10
3.873616
 20
11.608417
 30
0.0
 10
3.873616
 20
11.450926
 30
0.0
 10
3.436177
 20
11.450926
 30
0.0
 10
3.436177
 20
11.608417
 30
0.0
  0
LWPOLYLINE
  5
109
100
AcDbEntity
  8
0
 62
7
100
AcDbPolyline
 90
68
 70
1
 10
7.250732
 20
11.608417
 30
0.0
 10
7.250732
 20
11.450926
 30
0.0
 10
6.813293
 20
11.450926
 30
0.0
 10
6.813293
 20
11.013487
 30
0.0
 10
6.655822
 20
11.013487
 30
0.0
 10
6.655822
 20
10.576028
 30
0.0
 10
6.813293
 20
10.576028
 30
0.0
 10
6.813293
 20
10.138589
 30
0.0
 10
6.655822
 20
10.138589
 30
0.0
 10
6.655822
 20
9.701150
 30
0.0
 10
6.813293
 20
9.701150
 30
0.0
 10
6.813293
 20
9.263691
 30
0.0
 10
6.655822
 20
9.263691
 30
0.0
 10
6.655822
 20
8.826252
 30
0.0
 10
6.813293
 20
8.826252
 30
0.0
 10
6.813293
 20
8.388813
 30
0.0
 10
6.655822
 20
8.388813
 30
0.0
 10
6.655822
 20
7.951374
 30
0.0
 10
6.813293
 20
7.951374
 30
0.0
 10
6.813293
 20
7.513914
 30
0.0
 10
7.250732
 20
7.513914
 30
0.0
 10
7.250732
 20
7.356444
 30
0.0
 10
7.688171
 20
7.356444
 30
0.0
 10
7.688171
 20
7.513914
 30
0.0
 10
8.125630
 20
7.513914
 30
0.0
 10
8.125630
 20
7.356444
 30
0.0
 10
8.563069
 20
7.356444
 30
0.0
 10
8.563069
 20
7.513914
 30
0.0
 10
9.000549
 20
7.513914
 30
0.0
 10
9.000549
 20
7.356444
 30
0.0
 10
9.437988
 20
7.356444
 30
0.0
 10
9.437988
 20
7.513914
 30
0.0
 10
9.875427
 20
7.513914
 30
0.0
 10
9.875427
 20
7.356444
 30
0.0
 10
10.312866
 20
7.356444
 30
0.0
 10
10.312866
 20
7.513914
 30
0.0
 10
10.750305
 20
7.513914
 30
0.0
 10
10.750305
 20
7.951374
 30
0.0
 10
10.907796
 20
7.951374
 30
0.0
 10
10.907796
 20
8.388813
 30
0.0
 10
10.750305
 20
8.388813
 30
0.0
 10
10.750305
 20
8.826252
 30
0.0
 10
10.907796
 20
8.826252
 30
0.0
 10
10.907796
 20
9.263691
 30
0.0
 10
10.750305
 20
9.263691
 30
0.0
 10
10.750305
 20
9.701150
 30
0.0
 10
10.907796
 20
9.701150
 30
0.0
 10
10.907796
 20
10.138589
 30
0.0
 10
10.750305
 20
10.138589
 30
0.0
 10
10.750305
 20
10.576028
 30
0.0
 10
10.907796
 20
10.576028
 30
0.0
 10
10.907796
 20
11.013487
 30
0.0
 10
10.750305
 20
11.013487
 30
0.0
 10
10.750305
 20
11.450926
 30
0.0
 10
10.312866
 20
11.450926
 30
0.0
 10
10.312866
 20
11.608417
 30
0.0
 10
9.875427
 20
11.608417
 30
0.0
 10
9.875427
 20
11.450926
 30
0.0
 10
9.437988
 20
11.450926
 30
0.0
 10
9.437988
 20
11.608417
 30
0.0
 10
9.000549
 20
11.608417
 30
0.0
 10
9.000549
 20
11.450926
 30
0.0
 10
8.563069
 20
11.450926
 30
0.0
 10
8.563069
 20
11.608417
 30
0.0
 10
8.125630
 20
11.608417
 30
0.0
 10
8.125630
 20
11.450926
 30
0.0
 10
7.688171
 20
11.450926
 30
0.0
 10
7.688171
 20
11.608417
 30
0.0
  0
LWPOLYLINE
  5
10a
100
AcDbEntity
  8
0
 62
7
100
AcDbPolyline
 90
4
 70
1
 10
3.873616
 20
10.138589
 30
0.0
 10
5.185953
 20
10.138589
 30
0.0
 10
5.185953
 20
8.826252
 30
0.0
 10
3.873616
 20
8.826252
 30
0.0
  0
LWPOLYLINE
  5
10b
100
AcDbEntity
  8
0
 62
7
100
AcDbPolyline
 90
50
 70
1
 10
8.740580
 20
10.137307
 30
0.0
 10
8.823018
 20
10.137307
 30
0.0
 10
8.904744
 20
10.126972
 30
0.0
 10
8.984558
 20
10.106485
 30
0.0
 10
9.061177
 20
10.076150
 30
0.0
 10
9.133382
 20
10.036436
 30
0.0
 10
9.200073
 20
9.988015
 30
0.0
 10
9.260111
 20
9.931598
 30
0.0
 10
9.312663
 20
9.868102
 30
0.0
 10
9.356811
 20
9.798542
 30
0.0
 10
9.391886
 20
9.723977
 30
0.0
 10
9.417358
 20
9.645608
 30
0.0
 10
9.432779
 20
9.564655
 30
0.0
 10
9.437988
 20
9.482420
 30
0.0
 10
9.432779
 20
9.400186
 30
0.0
 10
9.417358
 20
9.319233
 30
0.0
 10
9.391886
 20
9.240864
 30
0.0
 10
9.356811
 20
9.166319
 30
0.0
 10
9.312663
 20
9.096739
 30
0.0
 10
9.260111
 20
9.033242
 30
0.0
 10
9.200073
 20
8.976846
 30
0.0
 10
9.133382
 20
8.928404
 30
0.0
 10
9.061177
 20
8.888711
 30
0.0
 10
8.984558
 20
8.858377
 30
0.0
 10
8.904744
 20
8.837869
 30
0.0
 10
8.823018
 20
8.827554
 30
0.0
 10
8.740580
 20
8.827554
 30
0.0
 10
8.658854
 20
8.837869
 30
0.0
 10
8.579040
 20
8.858377
 30
0.0
 10
8.502441
 20
8.888711
 30
0.0
 10
8.430236
 20
8.928404
 30
0.0
 10
8.363525
 20
8.976846
 30
0.0
 10
8.303487
 20
9.033242
 30
0.0
 10
8.250935
 20
9.096739
 30
0.0
 10
8.206807
 20
9.166319
 30
0.0
 10
8.171732
 20
9.240864
 30
0.0
 10
8.146260
 20
9.319233
 30
0.0
 10
8.130818
 20
9.400186
 30
0.0
 10
8.125630
 20
9.482420
 30
0.0
 10
8.130818
 20
9.564655
 30
0.0
 10
8.146260
 20
9.645608
 30
0.0
 10
8.171732
 20
9.723977
 30
0.0
 10
8.206807
 20
9.798542
 30
0.0
 10
8.250935
 20
9.868102
 30
0.0
 10
8.303487
 20
9.931598
 30
0.0
 10
8.363525
 20
9.988015
 30
0.0
 10
8.430236
 20
10.036436
 30
0.0
 10
8.502441
 20
10.076150
 30
0.0
 10
8.579040
 20
10.106485
 30
0.0
 10
8.658854
 20
10.126972
 30
0.0
  0
LWPOLYLINE
  5
10c
100
AcDbEntity
  8
0
 62
7
100
AcDbPolyline
 90
58
 70
1
 10
-0.050294
 20
9.810505
 30
0.0
 10
0.001017
 20
9.806476
 30
0.0
 10
0.051086
 20
9.794452
 30
0.0
 10
0.098653
 20
9.774738
 30
0.0
 10
0.142537
 20
9.747842
 30
0.0
 10
0.181701
 20
9.714415
 30
0.0
 10
0.215128
 20
9.675271
 30
0.0
 10
0.242024
 20
9.631366
 30
0.0
 10
0.261718
 20
9.583800
 30
0.0
 10
0.273742
 20
9.533751
 30
0.0
 10
0.277791
 20
9.482420
 30
0.0
 10
0.281819
 20
9.533751
 30
0.0
 10
0.293843
 20
9.583800
 30
0.0
 10
0.313537
 20
9.631366
 30
0.0
 10
0.340433
 20
9.675271
 30
0.0
 10
0.373880
 20
9.714415
 30
0.0
 10
0.413024
 20
9.747842
 30
0.0
 10
0.456929
 20
9.774738
 30
0.0
 10
0.504496
 20
9.794452
 30
0.0
 10
0.554544
 20
9.806476
 30
0.0
 10
0.605875
 20
9.810505
 30
0.0
 10
0.657185
 20
9.806476
 30
0.0
 10
0.707254
 20
9.794452
 30
0.0
 10
0.754821
 20
9.774738
 30
0.0
 10
0.798705
 20
9.747842
 30
0.0
 10
0.837870
 20
9.714415
 30
0.0
 10
0.871297
 20
9.675271
 30
0.0
 10
0.898193
 20
9.631366
 30
0.0
 10
0.917887
 20
9.583800
 30
0.0
 10
0.929911
 20
9.533751
 30
0.0
 10
0.933959
 20
9.482420
 30
0.0
 10
0.929911
 20
9.431110
 30
0.0
 10
0.917887
 20
9.381041
 30
0.0
 10
0.898193
 20
9.333474
 30
0.0
 10
0.871297
 20
9.289590
 30
0.0
 10
0.837870
 20
9.250426
 30
0.0
 10
0.798705
 20
9.216999
 30
0.0
 10
0.754821
 20
9.190103
 30
0.0
 10
0.712687
 20
9.172647
 30
0.0
 10
0.277791
 20
8.563780
 30
0.0
 10
-0.157105
 20
9.172647
 30
0.0
 10
-0.199240
 20
9.190103
 30
0.0
 10
-0.243144
 20
9.216999
 30
0.0
 10
-0.282288
 20
9.250426
 30
0.0
 10
-0.315715
 20
9.289590
 30
0.0
 10
-0.342632
 20
9.333474
 30
0.0
 10
-0.362326
 20
9.381041
 30
0.0
 10
-0.374350
 20
9.431110
 30
0.0
 10
-0.378378
 20
9.482421
 30
0.0
 10
-0.374350
 20
9.533751
 30
0.0
 10
-0.362326
 20
9.583800
 30
0.0
 10
-0.342632
 20
9.631367
 30
0.0
 10
-0.315715
 20
9.675271
 30
0.0
 10
-0.282288
 20
9.714415
 30
0.0
 10
-0.243144
 20
9.747842
 30
0.0
 10
-0.199240
 20
9.774738
 30
0.0
 10
-0.151673
 20
9.794453
 30
0.0
 10
-0.101624
 20
9.806477
 30
0.0
  0
ENDSEC
  0
SECTION
  2
OBJECTS
  0
DICTIONARY
  5
C
330
0
100
AcDbDictionary
  3
ACAD_GROUP
350
D
  3
ACAD_MLINESTYLE
350
17
  0
DICTIONARY
  5
D
330
C
100
AcDbDictionary
  0
DICTIONARY
  5
1A
330
C
100
AcDbDictionary
  0
DICTIONARY
  5
17
330
C
100
AcDbDictionary
  3
STANDARD
350
18
  0
DICTIONARY
  5
19
330
C
100
AcDbDictionary
  0
ENDSEC
  0
EOF
