  0
SECTION
  2
HEADER
  9
$ACADVER
  1
AC1014
  9
$HANDSEED
  5
FFFF
  9
$INSUNITS
 70
     5
  9
$MEASUREMENT
 70
     1
  0
ENDSEC
  0
SECTION
  2
TABLES
  0
TABLE
  2
VPORT
  5
8
330
0
100
AcDbSymbolTable
 70
     4
  0
VPORT
  5
2E
330
8
100
AcDbSymbolTableRecord
100
AcDbViewportTableRecord
  2
*ACTIVE
 70
     0
 10
0.0
 20
0.0
 11
1.0
 21
1.0
 12
210.0
 22
148.5
 13
0.0
 23
0.0
 14
10.0
 24
10.0
 15
10.0
 25
10.0
 16
0.0
 26
0.0
 36
1.0
 17
0.0
 27
0.0
 37
0.0
 40
341.0
 41
1.24
 42
50.0
 43
0.0
 44
0.0
 50
0.0
 51
0.0
 71
     0
 72
   100
 73
     1
 74
     3
 75
     0
 76
     0
 77
     0
 78
     0
  0
ENDTAB
  0
TABLE
  2
LTYPE
  5
5
330
0
100
AcDbSymbolTable
 70
     1
  0
LTYPE
  5
14
330
5
100
AcDbSymbolTableRecord
100
AcDbLinetypeTableRecord
  2
BYBLOCK
 70
     0
  3

 72
    65
 73
     0
 40
0.0
  0
LTYPE
  5
15
330
5
100
AcDbSymbolTableRecord
100
AcDbLinetypeTableRecord
  2
BYLAYER
 70
     0
  3

 72
    65
 73
     0
 40
0.0
  0
LTYPE
  5
16
330
5
100
AcDbSymbolTableRecord
100
AcDbLinetypeTableRecord
  2
CONTINUOUS
 70
     0
  3
Solid line
 72
    65
 73
     0
 40
0.0
  0
ENDTAB
  0
TABLE
  2
LAYER
  5
2
100
AcDbSymbolTable
 70
1
  0
LAYER
  5
50
100
AcDbSymbolTableRecord
100
AcDbLayerTableRecord
  2
0
 70
0
  6
CONTINUOUS
  0
ENDTAB
  0
TABLE
  2
STYLE
  5
3
330
0
100
AcDbSymbolTable
 70
     1
  0
STYLE
  5
11
330
3
100
AcDbSymbolTableRecord
100
AcDbTextStyleTableRecord
  2
STANDARD
 70
     0
 40
0.0
 41
1.0
 50
0.0
 71
     0
 42
2.5
  3
txt
  4

  0
ENDTAB
  0
TABLE
  2
VIEW
  5
6
330
0
100
AcDbSymbolTable
 70
     0
  0
ENDTAB
  0
TABLE
  2
UCS
  5
7
330
0
100
AcDbSymbolTable
 70
     0
  0
ENDTAB
  0
TABLE
  2
APPID
  5
9
330
0
100
AcDbSymbolTable
 70
     2
  0
APPID
  5
12
330
9
100
AcDbSymbolTableRecord
100
AcDbRegAppTableRecord
  2
ACAD
 70
     0
  0
ENDTAB
  0
TABLE
  2
DIMSTYLE
  5
A
330
0
100
AcDbSymbolTable
 70
     1
  0
DIMSTYLE
105
27
330
A
100
AcDbSymbolTableRecord
100
AcDbDimStyleTableRecord
  2
ISO-25
 70
     0
  3

  4

  5

  6

  7

 40
1.0
 41
2.5
 42
0.625
 43
3.75
 44
1.25
 45
0.0
 46
0.0
 47
0.0
 48
0.0
140
2.5
141
2.5
142
0.0
143
0.03937007874016
144
1.0
145
0.0
146
1.0
147
0.625
 71
     0
 72
     0
 73
     0
 74
     0
 75
     0
 76
     0
 77
     1
 78
     8
170
     0
171
     3
172
     1
173
     0
174
     0
175
     0
176
     0
177
     0
178
     0
270
     2
271
     2
272
     2
273
     2
274
     3
340
11
275
     0
280
     0
281
     0
282
     0
283
     0
284
     8
285
     0
286
     0
287
     3
288
     0
  0
ENDTAB
  0
TABLE
  2
BLOCK_RECORD
  5
1
330
0
100
AcDbSymbolTable
 70
     1
  0
BLOCK_RECORD
  5
1F
330
1
100
AcDbSymbolTableRecord
100
AcDbBlockTableRecord
  2
*MODEL_SPACE
  0
BLOCK_RECORD
  5
1B
330
1
100
AcDbSymbolTableRecord
100
AcDbBlockTableRecord
  2
*PAPER_SPACE
  0
ENDTAB
  0
ENDSEC
  0
SECTION
  2
BLOCKS
  0
BLOCK
  5
20
330
1F
100
AcDbEntity
  8
0
100
AcDbBlockBegin
  2
*MODEL_SPACE
 70
     0
 10
0.0
 20
0.0
 30
0.0
  3
*MODEL_SPACE
  1

  0
ENDBLK
  5
21
330
1F
100
AcDbEntity
  8
0
100
AcDbBlockEnd
  0
BLOCK
  5
1C
330
1B
100
AcDbEntity
 67
     1
  8
0
100
AcDbBlockBegin
  2
*PAPER_SPACE
  1

  0
ENDBLK
  5
1D
330
1B
100
AcDbEntity
 67
     1
  8
0
100
AcDbBlockEnd
  0
ENDSEC
  0
SECTION
  2
ENTITIES
  0
SPLINE
  5
100
100
AcDbEntity
  8
0
 62
7
100
AcDbSpline
 70
8
 71
3
 72
8
 73
4
 74
0
 40
0
 40
0
 40
0
 40
0
 40
1
 40
1
 40
1
 40
1
 10
3.856018
 20
0.220715
 30
0.0
 10
3.836296
 20
0.240440
 30
0.0
 10
3.851431
 20
0.506334
 30
0.0
 10
3.874843
 20
0.551623
 30
0.0
  0
SPLINE
  5
101
100
AcDbEntity
  8
0
 62
7
100
AcDbSpline
 70
8
 71
3
 72
8
 73
4
 74
0
 40
0
 40
0
 40
0
 40
0
 40
1
 40
1
 40
1
 40
1
 10
3.874843
 20
0.551623
 30
0.0
 10
3.903802
 20
0.607622
 30
0.0
 10
3.984341
 20
0.647752
 30
0.0
 10
4.067772
 20
0.647752
 30
0.0
  0
SPLINE
  5
102
100
AcDbEntity
  8
0
 62
7
100
AcDbSpline
 70
8
 71
3
 72
8
 73
4
 74
0
 40
0
 40
0
 40
0
 40
0
 40
1
 40
1
 40
1
 40
1
 10
4.067772
 20
0.647752
 30
0.0
 10
4.119251
 20
0.647752
 30
0.0
 10
4.127152
 20
0.654853
 30
0.0
 10
4.167529
 20
0.737377
 30
0.0
  0
SPLINE
  5
103
100
AcDbEntity
  8
0
 62
7
100
AcDbSpline
 70
8
 71
3
 72
8
 73
4
 74
0
 40
0
 40
0
 40
0
 40
0
 40
1
 40
1
 40
1
 40
1
 10
4.167529
 20
0.737377
 30
0.0
 10
4.219078
 20
0.842737
 30
0.0
 10
4.296004
 20
0.912708
 30
0.0
 10
4.446989
 20
0.991564
 30
0.0
  0
SPLINE
  5
104
100
AcDbEntity
  8
0
 62
7
100
AcDbSpline
 70
8
 71
3
 72
8
 73
4
 74
0
 40
0
 40
0
 40
0
 40
0
 40
1
 40
1
 40
1
 40
1
 10
4.446989
 20
0.991564
 30
0.0
 10
4.507334
 20
1.023080
 30
0.0
 10
4.570197
 20
1.065860
 30
0.0
 10
4.586686
 20
1.086631
 30
0.0
  0
SPLINE
  5
105
100
AcDbEntity
  8
0
 62
7
100
AcDbSpline
 70
8
 71
3
 72
8
 73
4
 74
0
 40
0
 40
0
 40
0
 40
0
 40
1
 40
1
 40
1
 40
1
 10
4.586686
 20
1.086631
 30
0.0
 10
4.628591
 20
1.139413
 30
0.0
 10
4.661634
 20
1.248738
 30
0.0
 10
4.698346
 20
1.456055
 30
0.0
  0
SPLINE
  5
106
100
AcDbEntity
  8
0
 62
7
100
AcDbSpline
 70
8
 71
3
 72
8
 73
4
 74
0
 40
0
 40
0
 40
0
 40
0
 40
1
 40
1
 40
1
 40
1
 10
4.698346
 20
1.456055
 30
0.0
 10
4.729739
 20
1.633339
 30
0.0
 10
4.729735
 20
1.634068
 30
0.0
 10
4.697222
 20
1.642561
 30
0.0
  0
SPLINE
  5
107
100
AcDbEntity
  8
0
 62
7
100
AcDbSpline
 70
8
 71
3
 72
8
 73
4
 74
0
 40
0
 40
0
 40
0
 40
0
 40
1
 40
1
 40
1
 40
1
 10
4.697222
 20
1.642561
 30
0.0
 10
4.561692
 20
1.678003
 30
0.0
 10
4.283519
 20
1.853463
 30
0.0
 10
4.161109
 20
1.980719
 30
0.0
  0
SPLINE
  5
108
100
AcDbEntity
  8
0
 62
7
100
AcDbSpline
 70
8
 71
3
 72
8
 73
4
 74
0
 40
0
 40
0
 40
0
 40
0
 40
1
 40
1
 40
1
 40
1
 10
4.161109
 20
1.980719
 30
0.0
 10
4.111131
 20
2.032677
 30
0.0
 10
4.095240
 20
2.039415
 30
0.0
 10
4.021947
 20
2.039729
 30
0.0
  0
SPLINE
  5
109
100
AcDbEntity
  8
0
 62
7
100
AcDbSpline
 70
8
 71
3
 72
8
 73
4
 74
0
 40
0
 40
0
 40
0
 40
0
 40
1
 40
1
 40
1
 40
1
 10
4.021947
 20
2.039729
 30
0.0
 10
3.976439
 20
2.039861
 30
0.0
 10
3.875865
 20
2.054092
 30
0.0
 10
3.798448
 20
2.071213
 30
0.0
  0
SPLINE
  5
10a
100
AcDbEntity
  8
0
 62
7
100
AcDbSpline
 70
8
 71
3
 72
8
 73
4
 74
0
 40
0
 40
0
 40
0
 40
0
 40
1
 40
1
 40
1
 40
1
 10
3.798448
 20
2.071213
 30
0.0
 10
3.135070
 20
2.217930
 30
0.0
 10
2.732297
 20
2.770102
 30
0.0
 10
2.716892
 20
3.553945
 30
0.0
  0
SPLINE
  5
10b
100
AcDbEntity
  8
0
 62
7
100
AcDbSpline
 70
8
 71
3
 72
8
 73
4
 74
0
 40
0
 40
0
 40
0
 40
0
 40
1
 40
1
 40
1
 40
1
 10
2.716892
 20
3.553945
 30
0.0
 10
2.713925
 20
3.704998
 30
0.0
 10
2.717646
 20
3.731759
 30
0.0
 10
2.746899
 20
3.770991
 30
0.0
  0
SPLINE
  5
10c
100
AcDbEntity
  8
0
 62
7
100
AcDbSpline
 70
8
 71
3
 72
8
 73
4
 74
0
 40
0
 40
0
 40
0
 40
0
 40
1
 40
1
 40
1
 40
1
 10
6.886171
 20
3.823924
 30
0.0
 10
7.324122
 20
3.823924
 30
0.0
 10
7.303658
 20
3.835262
 30
0.0
 10
7.303658
 20
3.592724
 30
0.0
  0
SPLINE
  5
10d
100
AcDbEntity
  8
0
 62
7
100
AcDbSpline
 70
8
 71
3
 72
8
 73
4
 74
0
 40
0
 40
0
 40
0
 40
0
 40
1
 40
1
 40
1
 40
1
 10
7.303658
 20
3.592724
 30
0.0
 10
7.303658
 20
3.266683
 30
0.0
 10
7.232268
 20
2.955417
 30
0.0
 10
7.105558
 20
2.728989
 30
0.0
  0
SPLINE
  5
10e
100
AcDbEntity
  8
0
 62
7
100
AcDbSpline
 70
8
 71
3
 72
8
 73
4
 74
0
 40
0
 40
0
 40
0
 40
0
 40
1
 40
1
 40
1
 40
1
 10
7.105558
 20
2.728989
 30
0.0
 10
6.889730
 20
2.343309
 30
0.0
 10
6.475084
 20
2.081315
 30
0.0
 10
6.021419
 20
2.043973
 30
0.0
  0
LWPOLYLINE
  5
10f
100
AcDbEntity
  8
0
 62
7
100
AcDbPolyline
 90
11
 70
0
 10
2.746899
 20
3.770991
 30
0.0
 10
2.780294
 20
3.815739
 30
0.0
 10
3.126449
 20
3.820151
 30
0.0
 10
3.472603
 20
3.824575
 30
0.0
 10
3.472603
 20
3.971598
 30
0.0
 10
3.472603
 20
4.118620
 30
0.0
 10
5.003389
 20
4.118620
 30
0.0
 10
6.534173
 20
4.118620
 30
0.0
 10
6.534173
 20
3.971273
 30
0.0
 10
6.534173
 20
3.823924
 30
0.0
 10
6.886171
 20
3.823924
 30
0.0
  0
SPLINE
  5
110
100
AcDbEntity
  8
0
 62
7
100
AcDbSpline
 70
8
 71
3
 72
8
 73
4
 74
0
 40
0
 40
0
 40
0
 40
0
 40
1
 40
1
 40
1
 40
1
 10
5.787263
 20
1.926321
 30
0.0
 10
5.660324
 20
1.808761
 30
0.0
 10
5.538870
 20
1.729616
 30
0.0
 10
5.396795
 20
1.671872
 30
0.0
  0
SPLINE
  5
111
100
AcDbEntity
  8
0
 62
7
100
AcDbSpline
 70
8
 71
3
 72
8
 73
4
 74
0
 40
0
 40
0
 40
0
 40
0
 40
1
 40
1
 40
1
 40
1
 10
5.396795
 20
1.671872
 30
0.0
 10
5.346591
 20
1.651468
 30
0.0
 10
5.302493
 20
1.631750
 30
0.0
 10
5.298798
 20
1.628055
 30
0.0
  0
SPLINE
  5
112
100
AcDbEntity
  8
0
 62
7
100
AcDbSpline
 70
8
 71
3
 72
8
 73
4
 74
0
 40
0
 40
0
 40
0
 40
0
 40
1
 40
1
 40
1
 40
1
 10
5.298798
 20
1.628055
 30
0.0
 10
5.287535
 20
1.616793
 30
0.0
 10
5.349172
 20
1.280674
 30
0.0
 10
5.378912
 20
1.191133
 30
0.0
  0
SPLINE
  5
113
100
AcDbEntity
  8
0
 62
7
100
AcDbSpline
 70
8
 71
3
 72
8
 73
4
 74
0
 40
0
 40
0
 40
0
 40
0
 40
1
 40
1
 40
1
 40
1
 10
5.378912
 20
1.191133
 30
0.0
 10
5.410635
 20
1.095626
 30
0.0
 10
5.462715
 20
1.044978
 30
0.0
 10
5.600967
 20
0.975189
 30
0.0
  0
SPLINE
  5
114
100
AcDbEntity
  8
0
 62
7
100
AcDbSpline
 70
8
 71
3
 72
8
 73
4
 74
0
 40
0
 40
0
 40
0
 40
0
 40
1
 40
1
 40
1
 40
1
 10
5.600967
 20
0.975189
 30
0.0
 10
5.732051
 20
0.909019
 30
0.0
 10
5.784259
 20
0.860367
 30
0.0
 10
5.843542
 20
0.749141
 30
0.0
  0
LWPOLYLINE
  5
115
100
AcDbEntity
  8
0
 62
7
100
AcDbPolyline
 90
3
 70
0
 10
6.021419
 20
2.043973
 30
0.0
 10
5.903849
 20
2.034295
 30
0.0
 10
5.787263
 20
1.926321
 30
0.0
  0
SPLINE
  5
116
100
AcDbEntity
  8
0
 62
7
100
AcDbSpline
 70
8
 71
3
 72
8
 73
4
 74
0
 40
0
 40
0
 40
0
 40
0
 40
1
 40
1
 40
1
 40
1
 10
5.989527
 20
0.642720
 30
0.0
 10
6.068030
 20
0.634688
 30
0.0
 10
6.091627
 20
0.624483
 30
0.0
 10
6.129547
 20
0.582190
 30
0.0
  0
SPLINE
  5
117
100
AcDbEntity
  8
0
 62
7
100
AcDbSpline
 70
8
 71
3
 72
8
 73
4
 74
0
 40
0
 40
0
 40
0
 40
0
 40
1
 40
1
 40
1
 40
1
 10
6.129547
 20
0.582190
 30
0.0
 10
6.173552
 20
0.533110
 30
0.0
 10
6.174988
 20
0.525874
 30
0.0
 10
6.170477
 20
0.376030
 30
0.0
  0
LWPOLYLINE
  5
118
100
AcDbEntity
  8
0
 62
7
100
AcDbPolyline
 90
3
 70
0
 10
5.843542
 20
0.749141
 30
0.0
 10
5.895111
 20
0.652387
 30
0.0
 10
5.989527
 20
0.642720
 30
0.0
  0
SPLINE
  5
119
100
AcDbEntity
  8
0
 62
7
100
AcDbSpline
 70
8
 71
3
 72
8
 73
4
 74
0
 40
0
 40
0
 40
0
 40
0
 40
1
 40
1
 40
1
 40
1
 10
5.014300
 20
0.217317
 30
0.0
 10
4.380975
 20
0.215431
 30
0.0
 10
3.859731
 20
0.216949
 30
0.0
 10
3.855979
 20
0.220711
 30
0.0
  0
LWPOLYLINE
  5
11a
100
AcDbEntity
  8
0
 62
7
100
AcDbPolyline
 90
3
 70
0
 10
6.170477
 20
0.376030
 30
0.0
 10
6.165802
 20
0.220735
 30
0.0
 10
5.014300
 20
0.217317
 30
0.0
  0
SPLINE
  5
11b
100
AcDbEntity
  8
0
 62
7
100
AcDbSpline
 70
8
 71
3
 72
8
 73
4
 74
0
 40
0
 40
0
 40
0
 40
0
 40
1
 40
1
 40
1
 40
1
 10
3.804661
 20
2.469205
 30
0.0
 10
3.657568
 20
2.629461
 30
0.0
 10
3.521582
 20
3.020840
 30
0.0
 10
3.480438
 20
3.402346
 30
0.0
  0
LWPOLYLINE
  5
11c
100
AcDbEntity
  8
0
 62
7
100
AcDbPolyline
 90
1
 70
1
 10
3.855979
 20
0.220711
 30
0.0
  0
SPLINE
  5
11d
100
AcDbEntity
  8
0
 62
7
100
AcDbSpline
 70
8
 71
3
 72
8
 73
4
 74
0
 40
0
 40
0
 40
0
 40
0
 40
1
 40
1
 40
1
 40
1
 10
3.073880
 20
3.410532
 30
0.0
 10
3.124719
 20
2.925051
 30
0.0
 10
3.371003
 20
2.580121
 30
0.0
 10
3.766437
 20
2.440581
 30
0.0
  0
SPLINE
  5
11e
100
AcDbEntity
  8
0
 62
7
100
AcDbSpline
 70
8
 71
3
 72
8
 73
4
 74
0
 40
0
 40
0
 40
0
 40
0
 40
1
 40
1
 40
1
 40
1
 10
3.766437
 20
2.440581
 30
0.0
 10
3.838699
 20
2.415083
 30
0.0
 10
3.847963
 20
2.422021
 30
0.0
 10
3.804656
 20
2.469205
 30
0.0
  0
LWPOLYLINE
  5
11f
100
AcDbEntity
  8
0
 62
7
100
AcDbPolyline
 90
5
 70
0
 10
3.480438
 20
3.402346
 30
0.0
 10
3.470282
 20
3.496485
 30
0.0
 10
3.267580
 20
3.496485
 30
0.0
 10
3.064881
 20
3.496485
 30
0.0
 10
3.073880
 20
3.410532
 30
0.0
  0
SPLINE
  5
120
100
AcDbEntity
  8
0
 62
7
100
AcDbSpline
 70
8
 71
3
 72
8
 73
4
 74
0
 40
0
 40
0
 40
0
 40
0
 40
1
 40
1
 40
1
 40
1
 10
6.378677
 20
2.493598
 30
0.0
 10
6.694853
 20
2.652793
 30
0.0
 10
6.906831
 20
2.987545
 30
0.0
 10
6.938581
 20
3.377787
 30
0.0
  0
LWPOLYLINE
  5
121
100
AcDbEntity
  8
0
 62
7
100
AcDbPolyline
 90
1
 70
1
 10
3.804656
 20
2.469205
 30
0.0
  0
SPLINE
  5
122
100
AcDbEntity
  8
0
 62
7
100
AcDbSpline
 70
8
 71
3
 72
8
 73
4
 74
0
 40
0
 40
0
 40
0
 40
0
 40
1
 40
1
 40
1
 40
1
 10
6.526471
 20
3.402346
 30
0.0
 10
6.484607
 20
3.011801
 30
0.0
 10
6.384106
 20
2.705213
 30
0.0
 10
6.233933
 20
2.509929
 30
0.0
  0
SPLINE
  5
123
100
AcDbEntity
  8
0
 62
7
100
AcDbSpline
 70
8
 71
3
 72
8
 73
4
 74
0
 40
0
 40
0
 40
0
 40
0
 40
1
 40
1
 40
1
 40
1
 10
6.233933
 20
2.509929
 30
0.0
 10
6.200982
 20
2.467078
 30
0.0
 10
6.174022
 20
2.428993
 30
0.0
 10
6.174022
 20
2.425295
 30
0.0
  0
SPLINE
  5
124
100
AcDbEntity
  8
0
 62
7
100
AcDbSpline
 70
8
 71
3
 72
8
 73
4
 74
0
 40
0
 40
0
 40
0
 40
0
 40
1
 40
1
 40
1
 40
1
 10
6.174022
 20
2.425295
 30
0.0
 10
6.174022
 20
2.411772
 30
0.0
 10
6.299009
 20
2.453487
 30
0.0
 10
6.378672
 20
2.493598
 30
0.0
  0
LWPOLYLINE
  5
125
100
AcDbEntity
  8
0
 62
7
100
AcDbPolyline
 90
5
 70
0
 10
6.938581
 20
3.377787
 30
0.0
 10
6.948235
 20
3.496485
 30
0.0
 10
6.742399
 20
3.496485
 30
0.0
 10
6.536564
 20
3.496485
 30
0.0
 10
6.526471
 20
3.402346
 30
0.0
  0
SPLINE
  5
126
100
AcDbEntity
  8
0
 62
7
100
AcDbSpline
 70
8
 71
3
 72
8
 73
4
 74
0
 40
0
 40
0
 40
0
 40
0
 40
1
 40
1
 40
1
 40
1
 10
3.355930
 20
4.261027
 30
0.0
 10
3.355930
 20
4.171720
 30
0.0
 10
3.320453
 20
4.086071
 30
0.0
 10
3.257303
 20
4.022921
 30
0.0
  0
SPLINE
  5
127
100
AcDbEntity
  8
0
 62
7
100
AcDbSpline
 70
8
 71
3
 72
8
 73
4
 74
0
 40
0
 40
0
 40
0
 40
0
 40
1
 40
1
 40
1
 40
1
 10
3.257303
 20
4.022921
 30
0.0
 10
3.194154
 20
3.959772
 30
0.0
 10
3.108505
 20
3.924295
 30
0.0
 10
3.019198
 20
3.924295
 30
0.0
  0
SPLINE
  5
128
100
AcDbEntity
  8
0
 62
7
100
AcDbSpline
 70
8
 71
3
 72
8
 73
4
 74
0
 40
0
 40
0
 40
0
 40
0
 40
1
 40
1
 40
1
 40
1
 10
3.019198
 20
3.924295
 30
0.0
 10
2.833226
 20
3.924295
 30
0.0
 10
2.682466
 20
4.075055
 30
0.0
 10
2.682466
 20
4.261027
 30
0.0
  0
SPLINE
  5
129
100
AcDbEntity
  8
0
 62
7
100
AcDbSpline
 70
8
 71
3
 72
8
 73
4
 74
0
 40
0
 40
0
 40
0
 40
0
 40
1
 40
1
 40
1
 40
1
 10
2.682466
 20
4.261027
 30
0.0
 10
2.682466
 20
4.446999
 30
0.0
 10
2.833226
 20
4.597759
 30
0.0
 10
3.019198
 20
4.597759
 30
0.0
  0
SPLINE
  5
12a
100
AcDbEntity
  8
0
 62
7
100
AcDbSpline
 70
8
 71
3
 72
8
 73
4
 74
0
 40
0
 40
0
 40
0
 40
0
 40
1
 40
1
 40
1
 40
1
 10
3.019198
 20
4.597759
 30
0.0
 10
3.108505
 20
4.597759
 30
0.0
 10
3.194154
 20
4.562282
 30
0.0
 10
3.257303
 20
4.499133
 30
0.0
  0
SPLINE
  5
12b
100
AcDbEntity
  8
0
 62
7
100
AcDbSpline
 70
8
 71
3
 72
8
 73
4
 74
0
 40
0
 40
0
 40
0
 40
0
 40
1
 40
1
 40
1
 40
1
 10
3.257303
 20
4.499133
 30
0.0
 10
3.320453
 20
4.435983
 30
0.0
 10
3.355930
 20
4.350334
 30
0.0
 10
3.355930
 20
4.261027
 30
0.0
  0
LWPOLYLINE
  5
12c
100
AcDbEntity
  8
0
 62
7
100
AcDbPolyline
 90
1
 70
1
 10
6.378672
 20
2.493598
 30
0.0
  0
SPLINE
  5
12d
100
AcDbEntity
  8
0
 62
7
100
AcDbSpline
 70
8
 71
3
 72
8
 73
4
 74
0
 40
0
 40
0
 40
0
 40
0
 40
1
 40
1
 40
1
 40
1
 10
7.303191
 20
4.260392
 30
0.0
 10
7.303191
 20
4.171085
 30
0.0
 10
7.267714
 20
4.085436
 30
0.0
 10
7.204565
 20
4.022286
 30
0.0
  0
SPLINE
  5
12e
100
AcDbEntity
  8
0
 62
7
100
AcDbSpline
 70
8
 71
3
 72
8
 73
4
 74
0
 40
0
 40
0
 40
0
 40
0
 40
1
 40
1
 40
1
 40
1
 10
7.204565
 20
4.022286
 30
0.0
 10
7.141415
 20
3.959137
 30
0.0
 10
7.055766
 20
3.923660
 30
0.0
 10
6.966459
 20
3.923660
 30
0.0
  0
SPLINE
  5
12f
100
AcDbEntity
  8
0
 62
7
100
AcDbSpline
 70
8
 71
3
 72
8
 73
4
 74
0
 40
0
 40
0
 40
0
 40
0
 40
1
 40
1
 40
1
 40
1
 10
6.966459
 20
3.923660
 30
0.0
 10
6.780487
 20
3.923660
 30
0.0
 10
6.629727
 20
4.074420
 30
0.0
 10
6.629727
 20
4.260392
 30
0.0
  0
SPLINE
  5
130
100
AcDbEntity
  8
0
 62
7
100
AcDbSpline
 70
8
 71
3
 72
8
 73
4
 74
0
 40
0
 40
0
 40
0
 40
0
 40
1
 40
1
 40
1
 40
1
 10
6.629727
 20
4.260392
 30
0.0
 10
6.629727
 20
4.446364
 30
0.0
 10
6.780487
 20
4.597124
 30
0.0
 10
6.966459
 20
4.597124
 30
0.0
  0
SPLINE
  5
131
100
AcDbEntity
  8
0
 62
7
100
AcDbSpline
 70
8
 71
3
 72
8
 73
4
 74
0
 40
0
 40
0
 40
0
 40
0
 40
1
 40
1
 40
1
 40
1
 10
6.966459
 20
4.597124
 30
0.0
 10
7.055766
 20
4.597124
 30
0.0
 10
7.141415
 20
4.561647
 30
0.0
 10
7.204565
 20
4.498498
 30
0.0
  0
SPLINE
  5
132
100
AcDbEntity
  8
0
 62
7
100
AcDbSpline
 70
8
 71
3
 72
8
 73
4
 74
0
 40
0
 40
0
 40
0
 40
0
 40
1
 40
1
 40
1
 40
1
 10
7.204565
 20
4.498498
 30
0.0
 10
7.267714
 20
4.435348
 30
0.0
 10
7.303191
 20
4.349699
 30
0.0
 10
7.303191
 20
4.260392
 30
0.0
  0
LWPOLYLINE
  5
133
100
AcDbEntity
  8
0
 62
7
100
AcDbPolyline
 90
1
 70
1
 10
3.355930
 20
4.261027
 30
0.0
  0
LWPOLYLINE
  5
134
100
AcDbEntity
  8
0
 62
7
100
AcDbPolyline
 90
1
 70
1
 10
7.303191
 20
4.260392
 30
0.0
  0
ENDSEC
  0
SECTION
  2
OBJECTS
  0
DICTIONARY
  5
C
330
0
100
AcDbDictionary
  3
ACAD_GROUP
350
D
  3
ACAD_MLINESTYLE
350
17
  0
DICTIONARY
  5
D
330
C
100
AcDbDictionary
  0
DICTIONARY
  5
1A
330
C
100
AcDbDictionary
  0
DICTIONARY
  5
17
330
C
100
AcDbDictionary
  3
STANDARD
350
18
  0
DICTIONARY
  5
19
330
C
100
AcDbDictionary
  0
ENDSEC
  0
EOF
